<?xml version="1.0" standalone="no"?>
<!DOCTYPE svg PUBLIC "-//W3C//DTD SVG 20010904//EN"
 "http://www.w3.org/TR/2001/REC-SVG-20010904/DTD/svg10.dtd">
<svg version="1.0" xmlns="http://www.w3.org/2000/svg"
 width="741.000000pt" height="317.000000pt" viewBox="0 0 741.000000 317.000000"
 preserveAspectRatio="xMidYMid meet">

<g transform="translate(0.000000,317.000000) scale(0.100000,-0.100000)"
fill="#000000" stroke="none">
<path d="M6285 2478 c-33 -23 -134 -94 -225 -158 -194 -138 -198 -140 -243
-140 -27 0 -59 17 -143 76 -305 214 -363 254 -372 254 -6 0 -14 -24 -18 -52
-4 -29 -8 -55 -9 -58 0 -3 -4 -27 -8 -55 -5 -27 -22 -135 -38 -240 l-31 -190
-124 -247 -124 -247 282 -322 c156 -177 307 -351 336 -386 l54 -63 199 0 199
0 332 381 c183 209 334 385 336 390 2 5 -51 114 -117 243 l-121 234 -45 288
c-25 159 -49 299 -53 312 -7 22 -8 21 -67 -20z m-816 -328 c39 -69 71 -128 71
-133 0 -5 -39 -26 -87 -48 -49 -22 -96 -44 -106 -50 -11 -6 -21 -8 -23 -6 -5
4 42 326 53 361 7 25 12 19 92 -124z m827 -45 c17 -102 29 -187 27 -189 -5 -5
-204 81 -215 92 -8 8 141 281 152 282 3 0 19 -83 36 -185z m-670 -472 c116
-109 141 -137 166 -193 l31 -65 31 67 c17 37 42 77 56 90 14 12 75 68 136 125
61 57 115 103 119 103 9 0 292 -177 316 -197 21 -18 62 -124 52 -132 -5 -3
-32 -35 -62 -71 -29 -36 -69 -83 -89 -104 l-35 -40 -48 54 c-26 30 -50 52 -53
49 -3 -3 -16 -64 -30 -137 l-24 -131 -98 -113 c-125 -144 -118 -136 -156 -152
-102 -42 -104 -23 -6 73 l72 70 -48 20 c-62 27 -190 29 -258 4 -27 -9 -48 -20
-48 -23 0 -3 29 -35 65 -70 36 -35 65 -72 65 -81 0 -16 -3 -16 -52 -1 -53 17
-70 34 -231 223 -45 54 -48 60 -67 170 -32 179 -22 168 -83 103 l-53 -57 -71
84 c-39 46 -80 95 -92 108 -26 30 -26 43 2 104 21 45 33 55 182 147 88 55 163
100 168 100 4 0 68 -57 143 -127z"/>
<path d="M5470 1463 l29 -68 72 -23 c39 -12 74 -21 76 -18 2 2 -10 33 -28 68
-32 65 -33 66 -98 87 -36 12 -69 21 -73 21 -3 0 7 -30 22 -67z"/>
<path d="M6117 1508 c-56 -19 -59 -22 -92 -89 -20 -38 -32 -69 -29 -69 4 0 38
9 75 20 74 22 83 32 114 121 17 46 15 46 -68 17z"/>
<path d="M672 1360 l3 -321 325 0 325 0 3 91 3 90 -176 0 -175 0 0 230 0 230
-155 0 -155 0 2 -320z"/>
<path d="M1420 1358 l0 -323 147 2 148 2 3 320 2 321 -150 0 -150 0 0 -322z"/>
<path d="M1850 1358 l0 -323 127 2 128 2 3 173 2 172 173 -172 173 -173 150 0
149 0 0 318 0 318 -132 3 -133 3 0 -173 0 -173 -173 173 -172 172 -148 0 -147
0 0 -322z"/>
<path d="M2882 1360 l3 -321 360 0 360 0 3 86 3 85 -211 0 -210 0 0 40 0 40
185 0 185 0 0 70 0 70 -183 0 c-101 0 -186 2 -189 5 -2 3 -3 18 0 35 l4 30
204 0 204 0 0 90 0 90 -360 0 -360 0 2 -320z"/>
<path d="M3670 1674 c0 -3 45 -74 100 -158 55 -84 100 -156 100 -160 0 -4 -47
-73 -105 -152 -58 -80 -108 -150 -111 -157 -3 -9 37 -12 167 -10 94 1 172 3
174 5 1 2 28 49 61 106 32 56 62 101 66 100 4 -2 36 -50 70 -107 l63 -103 168
-2 c92 0 167 2 167 6 0 4 -50 76 -111 159 -61 83 -108 157 -105 165 3 7 50 81
106 163 l100 151 -174 0 -174 0 -55 -106 -54 -107 -57 107 -58 106 -169 0
c-93 0 -169 -3 -169 -6z"/>
</g>
</svg>
