<?xml version="1.0" standalone="no"?>
<!DOCTYPE svg PUBLIC "-//W3C//DTD SVG 20010904//EN"
 "http://www.w3.org/TR/2001/REC-SVG-20010904/DTD/svg10.dtd">
<svg version="1.0" xmlns="http://www.w3.org/2000/svg"
 width="735.000000pt" height="505.000000pt" viewBox="0 0 735.000000 505.000000"
 preserveAspectRatio="xMidYMid meet">

<g transform="translate(0.000000,505.000000) scale(0.100000,-0.100000)"
fill="#000000" stroke="none">
<path d="M0 2525 l0 -2525 3675 0 3675 0 0 2525 0 2525 -3675 0 -3675 0 0
-2525z m4788 2312 c4 -20 -25 -34 -39 -20 -14 14 1 45 20 41 9 -2 17 -11 19
-21z m1684 -29 c-9 -9 -15 -9 -24 0 -10 10 -10 15 2 22 20 12 38 -6 22 -22z
m-2816 -119 c10 -17 -13 -36 -27 -22 -12 12 -4 33 11 33 5 0 12 -5 16 -11z
m982 -42 c2 -12 -3 -17 -17 -17 -15 0 -21 6 -21 21 0 25 33 22 38 -4z m595 6
c9 -9 -13 -34 -24 -27 -14 8 -11 34 4 34 8 0 17 -3 20 -7z m-959 -12 c10 -16
-5 -41 -24 -41 -20 0 -30 17 -22 38 5 14 38 16 46 3z m516 -57 c0 -8 -7 -14
-15 -14 -15 0 -21 21 -9 33 10 9 24 -2 24 -19z m-600 -24 c0 -13 -7 -20 -20
-20 -19 0 -27 20 -13 33 13 14 33 6 33 -13z m744 -4 c9 -13 7 -20 -8 -31 -32
-24 -62 15 -34 43 15 15 28 11 42 -12z m256 -6 c0 -13 -7 -20 -20 -20 -13 0
-20 7 -20 20 0 13 7 20 20 20 13 0 20 -7 20 -20z m-605 -40 c3 -5 -1 -10 -9
-10 -8 0 -18 5 -21 10 -3 6 1 10 9 10 8 0 18 -4 21 -10z m-1882 -57 c9 -9 -13
-34 -24 -27 -14 8 -11 34 4 34 8 0 17 -3 20 -7z m1291 -39 c7 -19 -1 -34 -19
-34 -18 0 -28 17 -21 35 7 20 32 19 40 -1z m2016 -164 c0 -5 -7 -10 -15 -10
-8 0 -15 5 -15 10 0 6 7 10 15 10 8 0 15 -4 15 -10z m-3393 -96 c3 -8 0 -21
-6 -27 -10 -9 -16 -8 -26 7 -8 10 -12 23 -9 27 9 15 34 10 41 -7z m2381 7 c19
-11 11 -45 -11 -49 -19 -4 -32 20 -23 43 6 17 15 19 34 6z m-1333 -59 c0 -18
-20 -15 -23 4 -3 10 1 15 10 12 7 -3 13 -10 13 -16z m709 -13 c-8 -14 -34 -11
-34 4 0 8 3 17 7 20 9 9 34 -13 27 -24z m-509 -49 c-5 -8 -11 -8 -17 -2 -6 6
-7 16 -3 22 5 8 11 8 17 2 6 -6 7 -16 3 -22z m1889 -99 c10 -16 -5 -41 -24
-41 -23 0 -32 13 -24 34 7 17 39 22 48 7z m144 -24 c4 -21 -25 -34 -40 -19 -8
8 -8 16 2 27 16 19 34 15 38 -8z m-228 -2 c0 -8 -7 -15 -15 -15 -8 0 -15 7
-15 15 0 8 7 15 15 15 8 0 15 -7 15 -15z m-2903 -31 c7 -20 -17 -37 -34 -23
-15 13 -6 39 13 39 8 0 17 -7 21 -16z m2560 -58 c-8 -20 -36 -21 -43 -1 -4 8
0 22 7 31 11 13 14 13 27 0 8 -8 12 -22 9 -30z m-1037 24 c0 -5 -2 -10 -4 -10
-3 0 -8 5 -11 10 -3 6 -1 10 4 10 6 0 11 -4 11 -10z m1558 -43 c4 -22 -27 -35
-38 -16 -10 15 7 42 24 36 6 -2 12 -11 14 -20z m-1720 -4 c-10 -2 -26 -2 -35
0 -10 3 -2 5 17 5 19 0 27 -2 18 -5z m198 -8 c27 -8 58 -21 69 -30 17 -14 15
-14 -20 1 -62 25 -87 31 -122 27 -18 -1 -33 2 -33 7 0 14 49 12 106 -5z m-466
-21 c0 -8 -6 -14 -14 -14 -9 0 -12 7 -9 20 6 22 23 18 23 -6z m-820 -15 c0 -5
-4 -9 -10 -9 -5 0 -10 7 -10 16 0 8 5 12 10 9 6 -3 10 -10 10 -16z m-776 -30
c20 -29 10 -51 -23 -47 -41 5 -40 67 1 68 4 0 14 -10 22 -21z m3894 -12 c2
-12 -3 -17 -17 -17 -12 0 -21 6 -21 13 0 31 32 34 38 4z m-2105 4 c13 -5 30
-6 37 -1 14 9 41 -10 33 -22 -6 -11 103 -57 162 -69 75 -15 82 -18 66 -29 -8
-4 -11 -15 -8 -24 6 -15 9 -15 37 -1 16 8 32 15 35 14 3 -1 20 2 38 5 17 3 46
2 62 -3 28 -9 26 -9 -19 -10 -39 -1 -47 -4 -42 -17 3 -8 2 -12 -4 -9 -6 3 -10
1 -10 -4 0 -6 -6 -11 -14 -11 -18 0 -24 -17 -21 -57 1 -22 -2 -30 -12 -26 -14
6 -73 -15 -73 -26 0 -4 -12 -14 -28 -23 -41 -24 -82 -65 -82 -81 0 -8 -7 -17
-15 -21 -9 -3 -15 -17 -14 -33 0 -24 8 -32 58 -55 32 -16 70 -28 84 -28 34 0
44 -18 23 -38 -16 -16 -19 -15 -36 6 -10 13 -27 25 -37 27 -10 2 -40 13 -68
25 -47 20 -97 22 -125 5 -7 -4 -13 1 -16 12 -4 14 -20 23 -56 32 -28 6 -66 19
-86 28 -32 15 -35 15 -47 0 -14 -20 -26 -22 -23 -5 2 7 -12 15 -32 18 l-35 6
45 5 c24 3 67 -1 95 -8 27 -7 62 -11 77 -7 25 5 27 8 17 26 -8 16 -8 22 2 29
7 4 10 11 7 15 -4 4 -1 16 7 28 20 27 19 48 -2 67 -10 9 -27 27 -39 40 -34 39
-60 57 -85 58 -66 3 -147 20 -155 33 -4 5 18 7 53 4 32 -3 94 -8 139 -10 46
-3 103 -13 134 -25 47 -18 56 -19 81 -6 29 15 79 58 79 68 0 3 -15 9 -32 12
-18 4 -39 12 -45 17 -10 8 -13 4 -13 -13 -1 -24 -1 -24 -24 5 -16 19 -30 27
-40 23 -9 -4 -16 -2 -16 2 0 14 -33 23 -40 11 -4 -6 -5 -22 -3 -34 4 -17 -1
-25 -15 -28 -17 -5 -19 -1 -16 33 3 39 -12 62 -26 39 -5 -8 -10 -8 -14 -2 -7
12 -19 10 -61 -7 -16 -7 -46 -15 -65 -18 -19 -3 -39 -9 -45 -13 -5 -4 -39 -10
-75 -14 -36 -4 -83 -10 -105 -13 -65 -9 -36 4 44 21 40 8 80 21 87 27 8 7 28
12 45 11 16 0 27 4 24 9 -4 5 -4 9 -1 9 2 0 12 3 22 7 12 4 15 3 10 -5 -5 -8
-2 -10 8 -6 9 3 14 10 11 14 -11 17 157 26 198 11z m619 -10 c13 -5 59 -35
103 -66 76 -55 83 -58 145 -60 82 -2 140 -18 172 -48 14 -13 38 -55 54 -94 26
-65 32 -72 63 -78 19 -4 53 -24 80 -49 25 -23 69 -58 96 -76 68 -45 166 -147
202 -212 55 -98 104 -275 102 -366 -1 -26 -6 -12 -19 50 -17 84 -46 181 -59
203 -3 6 -6 12 -7 15 -5 28 -17 60 -21 56 -10 -9 -34 24 -27 35 4 8 3 9 -5 5
-7 -5 -15 4 -22 24 -6 17 -24 37 -40 46 -16 8 -29 13 -29 12 0 -2 9 -27 20
-56 11 -29 19 -67 19 -85 -1 -27 -2 -28 -6 -7 -3 13 -21 53 -41 88 -34 59 -39
63 -65 58 -24 -5 -30 -1 -42 27 -16 39 -2 48 25 15 16 -19 19 -20 20 -5 0 9
-5 17 -11 17 -6 0 -8 7 -5 16 5 13 2 15 -14 11 -15 -4 -30 4 -54 30 -23 25
-38 34 -50 30 -16 -6 -16 -8 0 -32 l16 -25 -28 15 c-16 8 -39 15 -51 15 -26 0
-30 15 -7 28 14 8 14 12 -2 45 -18 37 -36 45 -64 27 -10 -6 -20 -4 -32 7 -26
23 -23 30 19 38 53 10 54 11 36 52 -16 39 -30 53 -76 79 -33 18 -97 10 -78 -9
21 -21 11 -34 -26 -35 -21 0 -69 -5 -108 -10 -38 -5 -85 -7 -103 -5 -18 3 -38
0 -46 -6 -7 -6 -20 -9 -29 -5 -15 5 -40 -15 -64 -52 -11 -17 -12 -16 -8 11 4
30 4 30 -40 27 -28 -3 -45 0 -45 7 0 17 -15 14 -97 -19 -42 -17 -78 -29 -80
-26 -4 4 63 45 120 71 20 9 37 22 37 27 0 5 -3 7 -7 5 -5 -3 -9 7 -10 21 l-1
27 26 -32 c26 -31 28 -32 75 -23 31 6 55 6 67 0 10 -5 63 -13 117 -16 113 -7
141 3 130 48 -8 29 -43 40 -103 31 l-39 -5 25 18 c14 9 27 19 29 21 2 1 -8 15
-23 30 -15 14 -24 20 -21 12 3 -9 2 -26 -4 -40 -8 -21 -10 -22 -16 -6 -6 14
-22 17 -104 18 -85 1 -91 3 -51 10 25 5 66 12 93 15 50 7 54 12 36 47 -18 34
-28 37 -115 37 -70 0 -84 -3 -114 -25 -42 -31 -60 -33 -34 -4 43 49 153 74
216 50z m-1497 -16 c-53 -22 -82 -29 -68 -15 6 7 26 16 45 20 49 12 57 10 23
-5z m-130 -35 c-3 -5 -14 -10 -23 -10 -15 0 -15 2 -2 10 20 13 33 13 25 0z
m-1821 -33 c8 -12 7 -21 -5 -32 -21 -21 -49 -9 -49 20 0 36 34 44 54 12z m986
-3 c0 -8 -4 -12 -10 -9 -5 3 -10 10 -10 16 0 5 5 9 10 9 6 0 10 -7 10 -16z
m2217 -16 c-3 -8 -6 -5 -6 6 -1 11 2 17 5 13 3 -3 4 -12 1 -19z m-1572 -59 c8
-9 -35 -19 -60 -14 -11 2 -22 4 -25 4 -3 1 0 5 7 9 14 9 69 9 78 1z m1625 -14
c-14 -17 -40 -20 -40 -6 0 5 10 12 23 14 12 2 24 5 26 6 2 0 -2 -6 -9 -14z
m-2094 -16 c10 -17 -13 -36 -27 -22 -12 12 -4 33 11 33 5 0 12 -5 16 -11z
m953 -14 c-25 -13 -50 -35 -57 -49 -13 -30 -59 -36 -69 -10 -8 22 7 34 79 59
84 29 104 30 47 0z m529 -60 c0 -29 0 -29 -7 5 -4 19 -11 46 -14 60 -6 20 -4
19 8 -5 8 -16 14 -43 13 -60z m1569 59 c-9 -9 -28 6 -21 18 4 6 10 6 17 -1 6
-6 8 -13 4 -17z m-1478 -72 c1 -7 -3 -10 -9 -7 -5 3 -10 21 -9 38 1 31 1 31 9
7 4 -14 8 -31 9 -38z m-1469 18 c9 -16 8 -22 -5 -26 -21 -8 -39 10 -32 30 9
22 24 20 37 -4z m122 -10 c-23 -22 -32 -25 -32 -12 0 5 10 14 23 20 32 15 33
14 9 -8z m-1314 -2 c30 -30 -1 -73 -36 -51 -23 14 -25 29 -7 47 20 19 27 20
43 4z m2012 -28 c-12 -8 -10 -10 8 -10 32 0 19 -17 -21 -26 -17 -3 -56 -20
-86 -35 -68 -36 -78 -36 -83 1 -5 36 7 50 47 51 16 0 53 7 80 14 63 16 74 17
55 5z m1787 -12 c-3 -8 -6 -5 -6 6 -1 11 2 17 5 13 3 -3 4 -12 1 -19z m583 7
c0 -8 -7 -15 -15 -15 -16 0 -20 12 -8 23 11 12 23 8 23 -8z m-4555 -11 c9 -9
14 -21 12 -27 -6 -18 -33 -31 -51 -24 -19 7 -22 53 -3 60 20 9 25 8 42 -9z
m3400 -4 c1 -17 26 -15 37 3 4 7 8 8 8 2 0 -22 -18 -37 -38 -31 -16 6 -21 1
-25 -26 -3 -18 -9 -52 -12 -75 -10 -55 5 -56 42 -3 34 48 50 53 27 8 -19 -37
-38 -58 -53 -58 -23 0 -9 -17 23 -28 19 -7 37 -19 40 -27 4 -10 -4 -9 -27 5
-44 27 -59 26 -51 -4 3 -14 2 -31 -2 -38 -6 -9 -11 -2 -14 22 -5 35 -5 35 -53
32 -35 -1 -48 1 -44 10 2 7 17 13 34 13 42 1 66 23 60 55 -3 14 2 49 12 78 10
28 14 52 9 52 -4 0 -8 7 -8 16 0 20 35 14 35 -6z m1873 -8 c3 -17 -2 -22 -17
-22 -14 0 -21 6 -21 18 0 38 33 41 38 4z m-3888 -36 c0 -3 -15 -15 -32 -27
l-33 -23 24 27 c22 24 41 35 41 23z m2081 -29 c-8 -8 -11 -7 -11 4 0 20 13 34
18 19 3 -7 -1 -17 -7 -23z m-2903 -20 c2 -10 -3 -17 -12 -17 -18 0 -29 16 -21
31 9 14 29 6 33 -14z m4782 13 c0 -5 -7 -10 -15 -10 -8 0 -15 5 -15 10 0 6 7
10 15 10 8 0 15 -4 15 -10z m-1434 -22 c-3 -13 -6 -25 -6 -28 0 -3 -20 -5 -45
-5 -25 0 -45 2 -45 5 1 22 45 48 84 49 14 1 17 -4 12 -21z m-2604 0 c-20 -20
-13 -31 16 -25 15 3 34 2 42 -4 12 -7 11 -9 -5 -10 -67 -3 -95 -21 -125 -79
l-18 -35 5 43 c4 29 2 42 -6 42 -19 0 -4 16 46 49 48 32 65 39 45 19z m3032
-16 c8 -13 -11 -35 -23 -28 -16 10 -14 36 3 36 8 0 17 -4 20 -8z m-549 -21 c8
-14 -26 -18 -64 -8 -19 5 -60 7 -90 4 -39 -4 -47 -3 -26 2 42 12 173 13 180 2z
m1756 -34 c-13 -13 -26 -3 -16 12 3 6 11 8 17 5 6 -4 6 -10 -1 -17z m-4380
-32 c-17 -20 -31 -39 -31 -43 0 -5 -9 -18 -21 -30 -11 -12 -29 -41 -40 -65
-17 -34 -19 -36 -14 -12 11 52 105 182 134 185 1 0 -11 -16 -28 -35z m2437 2
c4 -22 -27 -35 -38 -16 -10 15 7 42 24 36 6 -2 12 -11 14 -20z m-652 -5 c-19
-22 -88 -47 -107 -39 -10 3 -8 7 6 12 11 4 40 15 65 25 57 23 56 23 36 2z
m694 -2 c0 -5 -2 -10 -4 -10 -3 0 -8 5 -11 10 -3 6 -1 10 4 10 6 0 11 -4 11
-10z m-1790 -40 c0 -10 -9 -20 -20 -23 -16 -4 -20 0 -20 22 0 15 3 31 7 34 10
10 33 -13 33 -33z m1877 18 c-3 -8 -6 -5 -6 6 -1 11 2 17 5 13 3 -3 4 -12 1
-19z m462 -30 c1 -5 -3 -8 -8 -8 -12 0 -22 30 -14 43 6 10 20 -13 22 -35z
m-4014 22 c8 -13 -13 -40 -31 -40 -14 0 -19 31 -7 43 10 10 31 8 38 -3z m1620
-12 c-1 -12 -7 -24 -14 -26 -18 -6 -32 20 -19 35 16 20 35 15 33 -9z m-126 -9
c-19 -19 -99 -40 -99 -26 0 13 67 40 113 46 4 1 -2 -8 -14 -20z m-104 -9 c-18
-20 -55 -28 -55 -12 0 8 43 29 64 31 5 1 1 -8 -9 -19z m2154 -114 c-14 -15
-15 -5 -10 64 l5 65 6 -60 c4 -33 3 -64 -1 -69z m48 92 c-3 -7 -5 -2 -5 12 0
14 2 19 5 13 2 -7 2 -19 0 -25z m-2307 12 c0 -5 -5 -10 -11 -10 -5 0 -7 5 -4
10 3 6 8 10 11 10 2 0 4 -4 4 -10z m-729 -64 c-16 -19 -41 -10 -41 14 0 24 21
31 39 14 11 -10 12 -16 2 -28z m1124 4 c-6 -20 -9 -21 -23 -7 -13 13 -13 19
-2 32 8 10 17 12 23 6 5 -5 6 -19 2 -31z m1288 33 c-7 -2 -19 -2 -25 0 -7 3
-2 5 12 5 14 0 19 -2 13 -5z m2237 -8 c0 -8 -7 -15 -15 -15 -8 0 -15 7 -15 15
0 8 7 15 15 15 8 0 15 -7 15 -15z m-1580 -10 c0 -5 -8 -10 -18 -10 -9 -1 -22
-4 -29 -8 -7 -5 -9 0 -6 14 4 14 12 19 30 17 13 -2 23 -7 23 -13z m-705 -7
l63 -11 6 -41 c4 -23 9 -50 12 -62 4 -17 0 -20 -30 -21 -20 -1 -36 4 -36 10 0
6 -3 8 -6 4 -9 -9 38 -67 56 -67 29 0 59 -28 53 -50 -6 -23 23 -51 44 -43 7 3
37 -3 66 -12 28 -10 61 -19 72 -21 115 -17 118 -17 110 -4 -6 9 -4 10 10 3 12
-7 36 -5 77 5 56 14 58 15 42 33 -9 10 -50 34 -89 53 -84 40 -102 58 -50 49
19 -3 35 -3 35 0 0 4 -33 24 -72 47 -40 22 -69 40 -65 40 17 0 134 -54 172
-80 22 -15 45 -29 51 -31 24 -9 174 -197 174 -220 0 -18 56 -100 63 -93 3 3 8
0 13 -7 5 -8 3 -10 -6 -4 -8 5 -11 3 -9 -4 3 -7 8 -12 13 -11 5 1 12 -4 17
-11 4 -8 11 -10 16 -6 4 4 2 17 -5 27 -7 11 -12 23 -12 27 0 5 5 0 11 -10 6
-9 14 -15 20 -12 12 8 11 -15 -2 -53 -10 -29 -8 -36 26 -82 20 -28 46 -56 57
-64 11 -8 17 -19 14 -25 -4 -7 -1 -8 8 -5 9 3 28 -4 43 -16 15 -12 43 -28 62
-36 19 -8 31 -17 28 -20 -8 -8 -97 27 -97 38 0 5 -12 8 -27 6 -20 -2 -27 -8
-25 -21 2 -9 -2 -25 -7 -35 -10 -16 -10 -16 -11 2 0 14 -5 17 -22 12 -13 -3
-29 -6 -37 -6 -8 0 -11 -6 -7 -16 5 -14 4 -15 -9 -4 -8 7 -15 10 -15 7 0 -4
-17 5 -37 19 l-38 25 -18 -22 c-11 -14 -15 -29 -11 -43 8 -26 85 -135 113
-160 12 -11 21 -23 21 -28 0 -16 45 -70 70 -84 22 -12 23 -13 5 -13 -11 0 -42
16 -69 37 -27 20 -58 43 -70 49 -41 25 -157 10 -246 -30 -19 -8 -46 -17 -60
-20 -14 -3 -36 -9 -49 -13 -15 -4 -22 -3 -18 3 4 6 31 18 61 27 66 21 91 45
82 81 -4 14 -2 25 3 25 5 0 12 -8 14 -17 2 -10 4 -6 2 9 -1 15 2 25 7 22 4 -3
8 0 8 5 0 6 4 11 10 11 5 0 7 -7 4 -15 -4 -8 -1 -15 5 -15 6 0 11 20 12 48 1
66 17 25 18 -47 l1 -54 51 6 c29 4 54 9 57 11 2 3 -3 17 -12 31 -15 23 -14 29
6 26 12 -1 -14 61 -32 79 -10 10 -21 32 -25 49 -7 32 -20 40 -28 19 -4 -9 -6
-8 -6 2 -2 25 -15 38 -44 45 -27 7 -28 6 -21 -21 l6 -29 -30 33 c-26 27 -37
31 -61 27 -24 -4 -29 -2 -25 10 5 12 24 15 84 15 44 0 81 4 84 8 11 19 -8 94
-30 115 -26 24 -33 47 -9 27 18 -15 19 -3 1 29 l-13 24 -13 -23 c-7 -13 -13
-37 -12 -52 0 -16 -4 -26 -9 -22 -5 3 -8 33 -7 67 3 58 2 62 -25 75 -15 7 -40
14 -55 15 -24 2 -27 -1 -24 -25 3 -31 -13 -38 -20 -10 -3 10 -12 19 -21 19
-11 0 -14 -5 -8 -16 8 -15 31 -113 36 -156 2 -11 4 -24 5 -30 1 -5 1 -21 0
-35 -2 -23 -2 -24 -8 -4 -6 20 -62 74 -76 74 -3 0 -6 -12 -6 -27 0 -35 -6 -27
-14 21 -7 35 -6 38 8 27 8 -7 19 -10 24 -7 6 3 15 -1 22 -9 20 -24 30 -17 19
13 -6 15 -13 45 -15 66 -4 45 -12 56 -23 37 -6 -10 -12 -9 -25 4 -9 9 -16 22
-16 28 0 8 4 7 12 -1 16 -16 28 -15 28 2 0 20 -32 45 -37 29 -3 -7 -11 -13
-19 -13 -11 0 -9 -8 6 -35 24 -43 25 -55 5 -55 -8 0 -15 8 -15 18 -1 9 -9 27
-20 40 -14 18 -23 21 -37 14 -10 -5 -24 -7 -30 -5 -7 3 -13 0 -13 -5 0 -14
-42 -2 -60 17 -11 11 -14 24 -9 41 13 46 11 60 -8 53 -23 -9 -43 -29 -43 -42
0 -6 -8 -12 -17 -13 -10 0 -24 -2 -31 -2 -6 -1 -23 -13 -37 -28 -13 -14 -34
-29 -46 -33 l-21 -7 23 -24 c12 -13 27 -24 33 -24 28 0 143 -76 132 -87 -2 -2
-28 11 -58 30 -30 19 -72 40 -95 47 -26 8 -45 21 -52 36 -11 26 -66 58 -82 48
-6 -3 -16 2 -23 12 -13 16 -17 14 -67 -29 -59 -51 -76 -55 -35 -7 14 18 24 36
20 41 -3 5 0 9 7 9 17 0 5 160 -13 172 -7 5 -43 7 -80 6 -50 -3 -68 0 -68 9 0
7 -4 13 -10 13 -23 0 -7 20 23 28 l32 9 -33 20 -33 21 36 6 c21 4 65 7 99 6
33 -1 102 -1 153 -1 79 1 92 3 86 17 -3 8 -12 13 -20 10 -8 -3 -12 -2 -9 3 3
4 -28 18 -69 30 -41 13 -75 25 -75 27 0 10 129 -5 150 -16 18 -10 24 -9 31 1
5 8 9 17 9 20 0 14 45 18 55 5 6 -8 28 -17 48 -20 33 -5 37 -3 37 15 0 12 -4
17 -11 13 -8 -4 -9 0 -4 15 8 27 1 27 -26 -1 -12 -13 -19 -17 -15 -10 5 8 -1
12 -17 12 -14 0 -27 7 -31 15 -3 9 -18 15 -40 15 -19 0 -37 4 -41 9 -3 5 -31
13 -63 16 -31 4 -68 10 -82 15 -39 13 192 12 265 -2z m1204 -68 c26 -48 37
-60 56 -60 32 0 61 -42 46 -67 -9 -16 -10 -16 -11 -2 0 9 -11 24 -25 33 -28
18 -29 18 -15 -18 5 -14 6 -26 2 -26 -4 0 -14 16 -21 36 -16 43 -43 43 -52 -1
l-6 -30 -7 27 c-5 17 -2 36 7 54 15 28 8 71 -16 102 -6 8 -6 12 0 12 6 0 25
-27 42 -60z m-3675 41 c3 -5 -1 -11 -9 -15 -9 -3 -15 0 -15 9 0 16 16 20 24 6z
m2944 -33 c33 -49 66 -128 54 -128 -5 0 -26 35 -47 78 -21 42 -40 80 -42 85
-2 4 -2 7 1 7 3 0 18 -19 34 -42z m403 26 c14 -17 15 -25 24 -220 l6 -142 -27
-31 c-31 -37 -44 -35 -19 3 21 32 32 178 13 171 -10 -4 -12 14 -8 85 3 56 1
90 -5 91 -5 0 -4 3 3 6 18 7 15 30 -5 42 -10 6 -13 11 -7 11 6 0 17 -7 25 -16z
m-2111 -13 c0 -5 3 -18 7 -28 3 -10 2 -15 -2 -10 -10 9 -55 -31 -55 -50 0 -7
-4 -13 -10 -13 -5 0 -7 7 -4 15 4 8 2 15 -4 15 -5 0 -15 -7 -22 -15 -18 -22
-32 -18 -20 5 6 11 20 20 30 20 11 0 20 7 20 15 0 8 4 15 9 15 5 0 11 9 14 20
5 20 37 29 37 11z m1623 -32 c52 -43 46 -55 -8 -17 -42 29 -56 48 -37 48 4 0
24 -14 45 -31z m547 11 c0 -5 -2 -10 -4 -10 -3 0 -8 5 -11 10 -3 6 -1 10 4 10
6 0 11 -4 11 -10z m-310 -42 c0 -23 -3 -29 -11 -21 -6 6 -8 20 -4 32 9 30 15
26 15 -11z m-2780 12 c0 -5 -4 -10 -10 -10 -5 0 -10 5 -10 10 0 6 5 10 10 10
6 0 10 -4 10 -10z m179 -12 c-5 -9 -14 -20 -19 -23 -17 -10 -61 -105 -55 -115
4 -6 1 -10 -4 -10 -15 0 -14 -43 1 -58 9 -9 8 -12 -5 -12 -11 0 -17 -8 -18
-22 -5 -106 -19 -132 -19 -37 0 37 -5 70 -12 77 -9 9 -7 16 10 32 12 12 22 28
22 37 0 24 49 123 61 123 6 0 9 6 6 14 -4 9 2 13 18 12 18 -1 21 -4 14 -18z
m-80 -14 c-6 -8 -8 -14 -3 -14 4 0 -3 -11 -16 -25 -58 -62 -83 -127 -88 -234
-3 -57 -8 -88 -13 -80 -14 22 -10 129 5 190 17 65 58 145 73 142 5 -1 16 9 23
22 7 13 17 22 22 19 5 -3 4 -12 -3 -20z m2290 -26 c12 -32 2 -50 -23 -46 -37
5 -31 67 7 68 4 0 11 -10 16 -22z m396 -26 c-8 -8 -25 10 -19 20 4 6 9 5 15
-3 4 -7 6 -15 4 -17z m-2387 -30 c2 -7 -3 -12 -12 -12 -9 0 -16 7 -16 16 0 17
22 14 28 -4z m417 -43 c9 -17 15 -33 13 -35 -3 -2 -12 12 -21 31 -21 43 -13
47 8 4z m2692 -11 c-3 -8 -6 -5 -6 6 -1 11 2 17 5 13 3 -3 4 -12 1 -19z
m-3969 -25 c3 -19 -1 -23 -22 -23 -21 0 -26 5 -26 26 0 21 4 25 23 22 14 -2
23 -11 25 -25z m642 13 c0 -8 -4 -17 -8 -20 -13 -8 -35 11 -28 23 10 16 36 14
36 -3z m2830 -6 c0 -5 -5 -10 -11 -10 -5 0 -7 5 -4 10 3 6 8 10 11 10 2 0 4
-4 4 -10z m507 -32 c-3 -8 -6 -5 -6 6 -1 11 2 17 5 13 3 -3 4 -12 1 -19z m581
-4 c4 -27 -26 -40 -46 -20 -21 20 -8 48 20 44 14 -2 24 -11 26 -24z m-2847
-37 c-10 -9 -11 -8 -5 6 3 10 9 15 12 12 3 -3 0 -11 -7 -18z m2288 -47 c0 -19
-4 -44 -9 -55 -5 -13 -8 7 -7 55 0 47 3 67 8 55 4 -11 8 -36 8 -55z m28 28
c-3 -8 -6 -5 -6 6 -1 11 2 17 5 13 3 -3 4 -12 1 -19z m543 8 c0 -3 -4 -8 -10
-11 -5 -3 -10 -1 -10 4 0 6 5 11 10 11 6 0 10 -2 10 -4z m-4420 -10 c0 -2 3
-11 6 -19 7 -19 -27 -39 -45 -28 -19 12 -4 51 20 51 10 0 19 -2 19 -4z m340
-21 c0 -8 -7 -15 -15 -15 -16 0 -20 12 -8 23 11 12 23 8 23 -8z m998 -20 l27
-26 -25 -19 c-13 -10 -28 -16 -32 -14 -9 6 -11 84 -3 84 3 0 18 -11 33 -25z
m-2105 -31 c-8 -20 -37 -13 -41 10 -5 26 20 40 35 20 6 -9 9 -22 6 -30z m122
-25 c0 -7 -8 -15 -17 -17 -18 -3 -25 18 -11 32 10 10 28 1 28 -15z m1022 -21
c-3 -7 -5 -2 -5 12 0 14 2 19 5 13 2 -7 2 -19 0 -25z m1088 14 c14 -7 14 -10
2 -21 -10 -8 -17 -9 -22 -1 -3 5 -15 10 -26 10 -10 0 -19 7 -19 15 0 16 34 15
65 -3z m2454 -39 c0 -35 -1 -36 -10 -14 -5 14 -7 31 -5 38 10 24 16 13 15 -24z
m-1779 12 c-14 -17 -46 -20 -54 -6 -7 11 10 19 43 20 20 1 21 -1 11 -14z
m-1843 -27 c-3 -7 -5 -2 -5 12 0 14 2 19 5 13 2 -7 2 -19 0 -25z m287 10 c7
-12 6 -21 -3 -32 -17 -21 -57 -5 -53 20 7 35 37 42 56 12z m3391 -39 c5 -55
29 -202 45 -273 10 -44 0 -76 -11 -36 -7 24 -7 24 -14 -8 -11 -46 -19 -31 -16
28 2 36 -1 50 -11 50 -12 0 -15 91 -9 269 2 50 11 33 16 -30z m69 45 c33 -13
14 -64 -24 -64 -15 0 -22 40 -10 55 14 17 13 17 34 9z m-3990 -35 c-8 -14 -34
-11 -34 4 0 8 3 17 7 20 9 9 34 -13 27 -24z m1476 5 c0 -14 -4 -23 -9 -20 -5
3 -7 15 -4 26 7 28 13 25 13 -6z m62 -1 c18 -10 35 -21 38 -24 3 -3 19 -10 35
-14 28 -8 28 -9 7 -13 -13 -2 -28 -14 -34 -28 -12 -26 -23 -30 -33 -14 -4 6
-10 8 -15 5 -5 -3 -21 6 -36 20 -22 20 -24 27 -14 40 7 8 10 22 6 30 -7 20 5
19 46 -2z m1328 -35 c20 -45 39 -159 24 -145 -5 4 -10 28 -11 52 -2 24 -12 64
-23 89 -10 25 -17 46 -14 46 3 0 14 -19 24 -42z m-2924 21 c3 -6 0 -17 -7 -25
-18 -17 -44 -2 -36 20 7 18 33 21 43 5z m1139 -9 c3 -5 -1 -10 -10 -10 -12 0
-15 -6 -10 -20 8 -26 -1 -26 -16 1 -9 17 -8 23 2 30 18 11 27 11 34 -1z m2379
-57 c-16 -26 -34 -54 -41 -61 -22 -23 -14 3 12 39 13 19 30 44 36 57 7 12 14
20 17 18 2 -3 -9 -26 -24 -53z m-3469 37 c-3 -5 -12 -10 -18 -10 -7 0 -6 4 3
10 19 12 23 12 15 0z m2685 -10 c0 -5 -5 -10 -11 -10 -5 0 -7 5 -4 10 3 6 8
10 11 10 2 0 4 -4 4 -10z m-3702 -9 c21 -13 10 -46 -16 -49 -24 -4 -38 18 -28
43 6 17 24 19 44 6z m2706 -17 c9 -24 7 -34 -6 -34 -6 0 -8 3 -5 6 3 4 2 15
-4 25 -6 11 -6 19 0 19 5 0 12 -7 15 -16z m-1094 -1 c0 -5 -5 -15 -10 -23 -9
-13 -11 -13 -20 0 -15 22 -12 30 10 30 11 0 20 -3 20 -7z m1775 -3 c3 -5 1
-10 -4 -10 -6 0 -11 5 -11 10 0 6 2 10 4 10 3 0 8 -4 11 -10z m1685 -5 c0 -8
-7 -15 -15 -15 -16 0 -20 12 -8 23 11 12 23 8 23 -8z m740 5 c0 -5 -4 -10 -10
-10 -5 0 -10 5 -10 10 0 6 5 10 10 10 6 0 10 -4 10 -10z m-2853 -48 c-15 -15
-27 -34 -27 -41 0 -19 -77 -91 -97 -91 -12 0 -6 10 23 36 24 23 34 39 27 41
-7 3 -13 9 -13 14 0 18 65 68 89 69 l25 0 -27 -28z m387 -96 c38 -36 74 -66
80 -66 6 0 4 -5 -4 -11 -8 -6 -11 -12 -5 -15 32 -14 37 -23 31 -49 -4 -15 -16
-29 -26 -32 -11 -3 -20 -7 -20 -10 0 -9 45 -42 57 -43 9 0 10 -7 4 -22 -5 -13
-16 -22 -25 -20 -21 4 -20 -8 2 -24 32 -24 0 -36 -102 -37 -53 0 -99 2 -102 6
-15 15 20 35 79 46 94 18 99 20 95 44 -4 30 -38 33 -88 7 -23 -12 -46 -20 -52
-18 -6 2 9 12 33 23 24 10 46 20 48 22 15 10 -114 147 -130 137 -5 -3 -9 1 -9
9 0 10 -11 14 -37 13 -23 -1 -37 3 -36 10 1 6 -3 11 -10 12 -99 11 -130 18
-118 26 21 14 143 9 153 -6 6 -10 8 -9 8 4 0 25 29 12 65 -29 17 -19 37 -35
45 -36 8 -2 21 -6 29 -11 11 -7 11 -10 0 -17 -10 -6 -4 -17 26 -43 46 -41 70
-42 70 -4 1 23 -2 25 -18 17 -15 -9 -20 -7 -24 10 -3 12 -13 22 -22 22 -9 1
-3 4 12 8 l29 6 -20 23 c-11 12 -22 22 -26 22 -9 0 -95 90 -108 114 -10 18 -8
18 18 -2 16 -11 60 -50 98 -86z m116 94 c0 -5 -2 -10 -4 -10 -3 0 -8 5 -11 10
-3 6 -1 10 4 10 6 0 11 -4 11 -10z m1251 -27 c-12 -20 -14 -14 -5 12 4 9 9 14
11 11 3 -2 0 -13 -6 -23z m-821 -3 c0 -5 -2 -10 -4 -10 -3 0 -8 5 -11 10 -3 6
-1 10 4 10 6 0 11 -4 11 -10z m-5 -98 c-9 -9 -35 8 -35 24 0 16 2 16 20 -1 11
-10 18 -20 15 -23z m766 -2 c12 0 -19 -55 -43 -77 -25 -22 -22 -13 6 26 16 21
24 44 22 60 -2 14 -1 18 1 9 2 -10 9 -18 14 -18z m-3860 -65 c-1 -15 -24 -12
-29 3 -3 9 2 13 12 10 10 -1 17 -7 17 -13z m888 -32 c2 -2 0 -3 -6 -3 -6 0
-21 9 -34 21 l-24 20 30 -17 c17 -10 32 -19 34 -21z m1928 17 c-3 -11 -1 -22
4 -25 4 -3 6 -12 2 -20 -4 -11 3 -15 29 -15 36 0 78 -30 78 -54 0 -8 -11 -17
-24 -20 -13 -3 -31 -8 -38 -11 -11 -5 -14 1 -10 25 3 23 1 30 -13 30 -14 0
-16 -6 -11 -34 7 -37 -7 -57 -27 -37 -8 8 -7 17 2 35 15 26 5 59 -10 35 -11
-18 -44 15 -53 53 -5 21 -3 25 12 21 9 -2 26 5 37 16 25 25 29 25 22 1z
m-1737 -4 c0 -2 -7 -6 -15 -10 -8 -3 -15 -1 -15 4 0 6 7 10 15 10 8 0 15 -2
15 -4z m-1087 -13 c9 -9 -12 -33 -29 -33 -8 0 -14 9 -14 20 0 19 28 28 43 13z
m78 -13 c21 0 39 6 42 13 4 9 7 9 18 -1 11 -10 11 -16 1 -32 -6 -11 -12 -26
-12 -35 0 -17 -43 -31 -60 -20 -7 4 -10 19 -6 35 4 24 1 29 -19 34 -14 4 -25
12 -25 18 0 9 3 9 12 0 7 -7 29 -12 49 -12z m334 -20 c0 -18 -6 -26 -23 -28
-24 -4 -38 18 -28 44 3 9 15 14 28 12 17 -2 23 -10 23 -28z m3802 -34 c-5 -51
-3 -65 8 -70 8 -3 15 -17 15 -31 0 -18 -5 -25 -20 -25 -17 0 -20 -7 -21 -47
-1 -27 -5 -59 -9 -73 -6 -16 -7 -2 -3 38 5 51 2 66 -12 82 -10 12 -13 20 -7
20 7 0 12 13 12 29 0 16 5 31 11 33 6 2 14 27 17 56 2 29 7 52 10 52 3 0 2
-29 -1 -64z m-668 12 c0 -28 -2 -30 -9 -13 -12 28 -12 45 0 45 6 0 10 -15 9
-32z m-1103 -3 c2 -18 1 -18 -9 -4 -7 9 -19 19 -27 22 -9 4 -5 6 9 4 16 -1 25
-9 27 -22z m-2269 9 c-3 -3 -12 -4 -19 -1 -8 3 -5 6 6 6 11 1 17 -2 13 -5z
m3660 -40 c-10 -10 -37 16 -37 34 0 13 4 12 22 -5 12 -13 19 -25 15 -29z
m-3542 16 l20 -9 -20 0 c-11 0 -27 4 -35 9 -13 9 -13 10 0 9 8 0 24 -4 35 -9z
m389 -26 c7 -19 -10 -44 -31 -44 -17 0 -27 24 -19 45 7 20 42 19 50 -1z m3004
-32 c2 -14 -2 -22 -12 -22 -19 0 -28 14 -20 35 9 21 28 14 32 -13z m139 6 c-3
-8 -6 -5 -6 6 -1 11 2 17 5 13 3 -3 4 -12 1 -19z m-91 -25 c-10 -10 -19 5 -10
18 6 11 8 11 12 0 2 -7 1 -15 -2 -18z m382 3 c5 -25 -12 -39 -37 -31 -20 6
-28 34 -14 49 13 13 48 1 51 -18z m-458 -47 c14 -8 35 -21 46 -30 21 -15 21
-15 -12 -16 -20 -1 -34 4 -34 10 0 7 -13 21 -30 32 -16 11 -32 26 -35 34 -4
11 -1 11 17 -1 13 -8 34 -21 48 -29z m-960 21 c0 -5 -4 -10 -10 -10 -5 0 -10
5 -10 10 0 6 5 10 10 10 6 0 10 -4 10 -10z m1100 6 c0 -11 -19 -15 -25 -6 -3
5 1 10 9 10 9 0 16 -2 16 -4z m-1022 -23 c7 -7 20 -13 29 -13 12 0 14 -8 10
-35 -3 -19 -2 -35 4 -35 5 0 9 5 9 10 0 6 12 10 28 10 15 1 52 9 82 20 74 26
90 26 90 -4 0 -27 26 -42 46 -25 10 8 10 3 -2 -19 -8 -17 -25 -34 -37 -38 -12
-3 -29 -13 -39 -21 -32 -29 -29 6 4 36 29 27 31 31 13 32 -40 3 -61 -3 -98
-28 -28 -19 -52 -26 -92 -28 -52 -1 -68 6 -45 20 12 7 14 56 3 54 -26 -4 -35
3 -30 24 7 27 -1 43 -28 50 -12 4 -9 5 10 4 17 -1 36 -8 43 -14z m1185 -18
c-3 -9 -8 -14 -10 -11 -3 3 -2 9 2 15 9 16 15 13 8 -4z m907 -10 c0 -19 -20
-29 -32 -17 -15 15 -2 43 17 36 8 -3 15 -12 15 -19z m-2970 1 c0 -3 -4 -8 -10
-11 -5 -3 -10 -1 -10 4 0 6 5 11 10 11 6 0 10 -2 10 -4z m1914 -51 c3 -8 18
-21 33 -27 37 -16 103 -69 103 -81 0 -6 -10 -1 -22 10 -34 31 -80 52 -124 56
-26 3 -40 10 -42 21 -2 9 3 16 12 16 9 0 16 5 16 10 0 15 17 12 24 -5z m576
-50 c0 -8 -7 -15 -15 -15 -8 0 -15 7 -15 15 0 8 7 15 15 15 8 0 15 -7 15 -15z
m-1644 -30 c-20 -15 -36 -19 -36 -10 0 5 38 23 50 24 3 0 -4 -6 -14 -14z m764
-75 c0 -5 -2 -10 -4 -10 -3 0 -8 5 -11 10 -3 6 -1 10 4 10 6 0 11 -4 11 -10z
m-322 -13 c40 -18 27 -42 -29 -55 -65 -15 -70 -15 -63 3 6 14 -7 20 -30 16
-11 -2 -26 19 -26 37 0 16 111 15 148 -1z m-1423 -47 c-5 -8 -11 -8 -17 -2 -6
6 -7 16 -3 22 5 8 11 8 17 2 6 -6 7 -16 3 -22z m3053 -3 c3 -23 0 -27 -21 -27
-29 0 -43 26 -26 47 18 21 44 11 47 -20z m-664 -11 c-3 -15 -8 -25 -11 -23 -2
3 -1 17 3 31 3 15 8 25 11 23 2 -3 1 -17 -3 -31z m-936 -12 c18 -8 34 -20 37
-25 4 -5 11 -7 16 -4 5 4 9 2 9 -4 0 -5 -6 -12 -12 -15 -7 -3 -4 -5 7 -3 26 2
123 -75 174 -140 25 -31 60 -60 87 -74 53 -25 204 -155 204 -175 0 -21 -13
-17 -58 16 -52 37 -64 38 -30 3 29 -31 58 -85 58 -106 0 -24 -39 -12 -67 21
-14 18 -32 32 -39 32 -7 0 -14 6 -17 13 -3 9 -7 9 -18 0 -10 -8 -19 -9 -29 -2
-10 7 -11 12 -4 15 28 12 46 32 40 43 -6 9 -33 10 -101 5 -64 -4 -94 -3 -99 5
-5 8 8 11 43 11 27 0 62 5 76 10 23 9 25 13 15 25 -7 8 -19 15 -26 15 -7 0
-21 11 -30 25 -9 14 -22 25 -29 25 -7 0 -18 7 -25 15 -7 8 -22 15 -34 15 -12
0 -27 9 -34 20 -7 11 -18 20 -26 20 -7 0 -19 7 -26 15 -10 12 -8 16 14 25 31
11 33 21 6 45 -11 10 -18 20 -15 23 6 6 -24 25 -77 48 -33 15 -36 18 -21 29
11 8 13 14 5 19 -11 7 -17 26 -9 26 2 0 18 -7 35 -16z m922 -35 c0 -19 -61
-127 -82 -146 -12 -11 -7 2 12 31 21 30 33 60 32 79 0 17 1 35 4 39 8 12 34
10 34 -3z m-1503 -45 c-3 -3 -12 -4 -19 -1 -8 3 -5 6 6 6 11 1 17 -2 13 -5z
m-1017 -114 c0 -5 -7 -10 -15 -10 -8 0 -15 5 -15 10 0 6 7 10 15 10 8 0 15 -4
15 -10z m140 -15 c0 -8 -7 -15 -15 -15 -8 0 -15 7 -15 15 0 8 7 15 15 15 8 0
15 -7 15 -15z m2548 -2 c13 -26 4 -43 -23 -43 -27 0 -40 26 -24 46 16 19 37
17 47 -3z m-287 -26 l-23 -22 17 28 c10 15 20 25 23 22 3 -3 -5 -16 -17 -28z
m-21 -31 c0 -2 -8 -10 -17 -17 -16 -13 -17 -12 -4 4 13 16 21 21 21 13z
m-1830 -36 c0 -5 -9 -10 -21 -10 -11 0 -17 5 -14 10 3 6 13 10 21 10 8 0 14
-4 14 -10z m1091 -9 c13 -10 38 -25 54 -34 20 -11 24 -16 13 -17 -16 0 -118
57 -118 66 0 11 30 2 51 -15z m159 -34 c0 -8 -3 -17 -7 -20 -9 -9 -34 13 -27
24 8 14 34 11 34 -4z m584 5 c9 -14 -12 -35 -28 -29 -23 9 -20 37 3 37 11 0
22 -4 25 -8z m326 -32 c0 -5 -2 -10 -4 -10 -3 0 -8 5 -11 10 -3 6 -1 10 4 10
6 0 11 -4 11 -10z m-455 -10 c-3 -5 -12 -10 -18 -10 -7 0 -6 4 3 10 19 12 23
12 15 0z m-2047 -21 c-2 -6 -8 -10 -13 -10 -5 0 -11 4 -13 10 -2 6 4 11 13 11
9 0 15 -5 13 -11z m1543 -60 c25 -25 24 -38 -6 -49 -14 -5 -25 -16 -25 -23 0
-8 -21 -48 -48 -88 -26 -41 -53 -87 -61 -104 -9 -19 -15 -25 -19 -16 -2 7 2
18 9 23 11 8 10 8 -4 4 -10 -3 -23 -6 -28 -6 -15 0 -41 -49 -35 -66 5 -13 9
-14 21 -4 8 7 15 9 15 4 0 -5 7 0 16 11 13 17 16 18 24 5 12 -19 13 -47 1 -54
-4 -3 -22 -2 -38 3 -17 5 -37 5 -45 0 -20 -11 -48 -1 -48 17 0 18 -16 18 -23
0 -5 -12 -14 -11 -51 7 -27 13 -44 27 -41 35 16 41 16 46 -3 23 -16 -20 -24
-22 -48 -16 -28 8 -28 9 -6 13 21 3 23 7 18 40 -6 34 -5 35 8 18 10 -12 29
-19 58 -20 24 -1 52 -7 64 -13 16 -9 24 -9 32 -1 15 15 16 38 2 38 -7 0 -7 6
0 20 13 25 26 25 40 1 7 -15 6 -23 -4 -34 -8 -7 -11 -19 -7 -26 9 -14 47 36
43 57 -2 6 5 12 14 12 10 0 14 -5 10 -15 -3 -8 -1 -15 4 -15 6 0 10 6 10 14 0
8 6 16 13 19 6 2 -3 7 -22 12 -24 5 -30 10 -20 16 7 4 19 4 25 -2 7 -5 18 -8
25 -7 28 6 91 89 73 95 -7 2 -3 25 10 64 12 33 23 53 24 44 2 -9 12 -25 23
-36z m-1421 15 c0 -8 -7 -14 -15 -14 -15 0 -21 21 -9 33 10 9 24 -2 24 -19z
m2050 -18 c0 -8 -5 -18 -11 -22 -14 -8 -33 11 -25 25 10 16 36 13 36 -3z m195
-16 c0 -7 -6 -15 -12 -17 -8 -3 -13 4 -13 17 0 13 5 20 13 18 6 -3 12 -11 12
-18z m-720 -31 c5 -14 1 -26 -9 -35 -9 -8 -14 -11 -11 -8 3 4 0 13 -6 20 -12
15 -5 44 10 44 5 0 13 -10 16 -21z m105 -31 c0 -31 -3 -39 -11 -31 -7 7 -8 24
-4 42 9 43 15 39 15 -11z m585 -8 c0 -22 -29 -18 -33 3 -3 14 1 18 15 15 10
-2 18 -10 18 -18z m-875 -10 c-14 -26 -57 -43 -88 -35 -29 7 -26 12 8 17 14 2
36 11 50 21 33 23 43 22 30 -3z m440 -18 c0 -15 -2 -15 -10 -2 -13 20 -13 33
0 25 6 -3 10 -14 10 -23z m-314 -18 c-3 -7 -1 -16 4 -19 16 -10 12 -35 -6 -42
-18 -7 -36 15 -29 35 2 6 0 12 -5 12 -15 0 -12 38 3 43 17 6 39 -13 33 -29z
m470 -12 c1 -7 0 -8 -3 -2 -2 5 -9 8 -14 4 -5 -3 -9 0 -9 6 0 15 23 7 26 -8z
m-266 -12 c0 -5 -4 -10 -10 -10 -5 0 -10 5 -10 10 0 6 5 10 10 10 6 0 10 -4
10 -10z m-257 -40 c-4 -14 1 -26 13 -35 26 -19 9 -31 -21 -15 -22 12 -27 11
-45 -10 -11 -13 -23 -20 -26 -17 -4 3 1 13 10 22 18 18 21 30 6 20 -5 -3 -10
-2 -10 4 0 6 11 13 25 17 13 3 29 12 36 20 16 19 18 18 12 -6z m324 -12 c-3
-8 -6 -5 -6 6 -1 11 2 17 5 13 3 -3 4 -12 1 -19z m627 -24 c7 -19 -1 -34 -19
-34 -18 0 -28 17 -21 35 7 20 32 19 40 -1z m-1530 -63 c3 -5 -3 -11 -13 -14
-14 -3 -18 -1 -14 9 6 16 19 18 27 5z m1506 -6 c0 -8 -7 -15 -15 -15 -8 0 -15
7 -15 15 0 8 7 15 15 15 8 0 15 -7 15 -15z m135 -25 c-5 -8 -11 -8 -17 -2 -6
6 -7 16 -3 22 5 8 11 8 17 2 6 -6 7 -16 3 -22z m-2650 -45 c0 -13 -8 -21 -22
-23 -19 -3 -23 1 -23 23 0 22 4 26 23 23 14 -2 22 -10 22 -23z m2423 2 c2 -10
-3 -17 -12 -17 -18 0 -29 16 -21 31 9 14 29 6 33 -14z m-1192 2 c3 -6 -3 -20
-14 -32 -19 -19 -22 -19 -28 -4 -11 29 26 61 42 36z m1104 -15 c0 -8 -7 -14
-15 -14 -15 0 -21 21 -9 33 10 9 24 -2 24 -19z m-1215 -4 c-3 -5 -12 -10 -18
-10 -7 0 -6 4 3 10 19 12 23 12 15 0z m685 -70 c0 -5 -5 -10 -11 -10 -5 0 -7
5 -4 10 3 6 8 10 11 10 2 0 4 -4 4 -10z m685 -8 c0 -18 -20 -15 -23 4 -3 10 1
15 10 12 7 -3 13 -10 13 -16z m-1465 -2 c0 -5 -8 -10 -17 -10 -15 0 -16 2 -3
10 19 12 20 12 20 0z m55 -30 c3 -5 -1 -10 -9 -10 -9 0 -16 5 -16 10 0 6 4 10
9 10 6 0 13 -4 16 -10z m1436 -73 c-13 -13 -31 0 -24 19 4 11 8 12 20 3 9 -8
10 -16 4 -22z m-571 -147 c0 -5 -4 -10 -10 -10 -5 0 -10 5 -10 10 0 6 5 10 10
10 6 0 10 -4 10 -10z m448 -163 c2 -12 -3 -17 -17 -17 -15 0 -21 6 -21 21 0
25 33 22 38 -4z"/>
<path d="M4183 3518 c-30 -14 -29 -26 2 -40 21 -10 28 -8 40 8 30 40 8 56 -42
32z"/>
<path d="M4360 3499 c0 -5 5 -7 10 -4 6 3 10 8 10 11 0 2 -4 4 -10 4 -5 0 -10
-5 -10 -11z"/>
<path d="M4080 3463 c8 -3 19 -11 23 -17 6 -7 7 -6 4 4 -2 8 -12 16 -23 17
-13 2 -15 1 -4 -4z"/>
<path d="M4177 3453 c-4 -3 -7 -11 -7 -17 0 -6 5 -5 12 2 6 6 9 14 7 17 -3 3
-9 2 -12 -2z"/>
<path d="M4255 3410 c-3 -5 -2 -10 4 -10 5 0 13 5 16 10 3 6 2 10 -4 10 -5 0
-13 -4 -16 -10z"/>
<path d="M4563 3450 c-13 -5 -23 -12 -23 -15 0 -11 37 -4 56 10 22 17 4 20
-33 5z"/>
<path d="M5190 3322 c0 -10 8 -27 18 -39 15 -21 20 -22 54 -11 l38 11 -33 22
c-45 31 -77 38 -77 17z"/>
<path d="M3170 3355 c0 -17 2 -18 24 -9 23 9 20 24 -4 24 -11 0 -20 -7 -20
-15z"/>
<path d="M4150 2840 c0 -6 -12 -10 -26 -10 -22 0 -24 -2 -14 -15 10 -12 6 -13
-27 -8 -41 7 -45 7 -82 5 -16 -1 -22 -5 -15 -12 12 -12 136 -41 128 -29 -3 5
2 9 11 9 10 0 13 5 9 12 -5 7 -2 9 7 6 8 -3 22 0 31 6 16 11 15 14 -3 29 -10
9 -19 12 -19 7z"/>
<path d="M4155 2749 c-4 -6 -5 -11 -4 -12 69 -40 89 -47 89 -32 0 11 -5 15
-14 12 -8 -3 -17 0 -20 8 -8 21 -43 37 -51 24z"/>
<path d="M3970 2726 c0 -35 28 -96 45 -97 8 -1 21 -2 27 -3 7 -1 16 15 19 34
3 19 10 44 14 55 6 16 4 16 -10 -4 -14 -18 -19 -20 -26 -10 -5 8 -3 16 4 21 7
4 1 11 -16 17 -43 17 -57 14 -57 -13z"/>
<path d="M4100 2685 c-17 -32 -9 -66 18 -76 19 -7 25 -5 29 11 6 22 19 27 25
8 5 -14 48 21 48 38 0 11 -32 25 -86 37 -15 3 -26 -2 -34 -18z"/>
<path d="M4753 2700 c-30 -12 -29 -34 4 -76 l27 -36 17 34 c20 36 26 17 9 -27
-8 -21 -5 -41 15 -96 14 -39 28 -95 31 -125 4 -29 11 -54 15 -54 5 0 9 6 10
13 0 6 5 -3 11 -22 l9 -34 24 29 c21 25 23 26 18 7 -4 -16 0 -25 13 -30 19 -7
30 -15 59 -40 16 -15 26 -17 23 -3 -2 5 13 18 32 28 19 11 36 26 38 34 2 8
-15 37 -38 64 -22 27 -40 52 -40 56 0 18 -20 6 -34 -19 -19 -36 -21 -21 -2 16
14 26 13 31 -18 82 -18 30 -45 79 -60 109 -39 78 -62 100 -105 99 -20 0 -46
-4 -58 -9z m168 -187 c-8 -15 -10 -15 -11 -2 0 17 10 32 18 25 2 -3 -1 -13 -7
-23z m-20 -54 c-5 -13 -10 -19 -10 -12 -1 15 10 45 15 40 3 -2 0 -15 -5 -28z
m-14 -91 c-2 -13 -4 -3 -4 22 0 25 2 35 4 23 2 -13 2 -33 0 -45z m79 -14 c-4
-9 -9 -15 -11 -12 -3 3 -3 13 1 22 4 9 9 15 11 12 3 -3 3 -13 -1 -22z"/>
<path d="M4586 2671 c-9 -14 12 -43 25 -35 5 3 9 0 9 -5 0 -6 9 -11 20 -11 11
0 20 7 20 15 0 8 5 14 11 13 6 -2 13 2 15 7 5 12 -36 13 -55 1 -7 -5 -17 -1
-25 10 -9 12 -15 14 -20 5z"/>
<path d="M4625 2600 c3 -5 8 -10 11 -10 2 0 4 5 4 10 0 6 -5 10 -11 10 -5 0
-7 -4 -4 -10z"/>
<path d="M4130 2570 c-12 -8 -11 -10 7 -10 12 0 25 5 28 10 8 13 -15 13 -35 0z"/>
<path d="M4895 2260 c-3 -5 -1 -18 4 -27 9 -16 10 -14 11 10 0 28 -5 34 -15
17z"/>
<path d="M4120 1985 l-35 -14 50 2 c27 1 49 7 48 12 -3 15 -24 15 -63 0z"/>
<path d="M4590 869 c0 -10 30 -20 41 -13 18 11 9 24 -16 22 -14 -1 -25 -5 -25
-9z"/>
</g>
</svg>
